<svg xmlns="http://www.w3.org/2000/svg" xmlns:xlink="http://www.w3.org/1999/xlink" viewBox="0,0,256,256" width="30px" height="30px" fill-rule="nonzero"><g fill="#ffffff" fill-rule="nonzero" stroke="none" stroke-width="1" stroke-linecap="butt" stroke-linejoin="miter" stroke-miterlimit="10" stroke-dasharray="" stroke-dashoffset="0" font-family="none" font-weight="none" font-size="none" text-anchor="none" style="mix-blend-mode: normal"><g transform="scale(8.53333,8.53333)"><path d="M10,29v0c-2.209,0 -4,-1.791 -4,-4v0c0,-2.209 1.791,-4 4,-4h2.857c0.631,0 1.143,0.512 1.143,1.143v2.857c0,2.209 -1.791,4 -4,4zM20,9h-2.857c-0.631,0 -1.143,-0.512 -1.143,-1.143v-5.714c0,-0.631 0.512,-1.143 1.143,-1.143h2.857c2.209,0 4,1.791 4,4v0c0,2.209 -1.791,4 -4,4zM10,1h2.857c0.631,0 1.143,0.512 1.143,1.143v5.714c0,0.631 -0.512,1.143 -1.143,1.143h-2.857c-2.209,0 -4,-1.791 -4,-4v0c0,-2.209 1.791,-4 4,-4zM10,11h2.857c0.631,0 1.143,0.512 1.143,1.143v5.714c0,0.631 -0.512,1.143 -1.143,1.143h-2.857c-2.209,0 -4,-1.791 -4,-4v0c0,-2.209 1.791,-4 4,-4zM20,11c-1.933,4.41828 -7.08172,6.433 -11.5,4.5c-4.41828,-1.933 -6.433,-7.08172 -4.5,-11.5c0,0 NaN,NaN NaN,NaNcNaN,NaN NaN,NaN NaN,NaNz"></path></g></g></svg>