<svg width="38" height="58" viewBox="0 0 38 58" fill="none" xmlns="http://www.w3.org/2000/svg">
<path d="M3.12 2.64087C4.62419 1.13667 6.66432 0.291626 8.79158 0.291626H16.8124V16.3333H8.79158C6.66432 16.3333 4.6242 15.4882 3.12 13.984C1.6158 12.4798 0.770752 10.4397 0.770752 8.31245C0.770752 6.1852 1.6158 4.14507 3.12 2.64087Z" fill="white"/>
<path d="M29.2082 16.3333H21.1874V0.291626H29.2082C30.2616 0.291626 31.3046 0.499091 32.2777 0.902175C33.2508 1.30526 34.135 1.89607 34.8798 2.64087C35.6246 3.38567 36.2154 4.26988 36.6185 5.24301C37.0216 6.21615 37.2291 7.25914 37.2291 8.31245C37.2291 9.36576 37.0216 10.4088 36.6185 11.3819C36.2154 12.355 35.6246 13.2392 34.8798 13.984C34.135 14.7288 33.2508 15.3196 32.2777 15.7227C31.3046 16.1258 30.2616 16.3333 29.2082 16.3333Z" fill="white"/>
<path d="M29.2082 20.7083C28.1549 20.7083 27.1119 20.9158 26.1388 21.3188C25.1657 21.7219 24.2815 22.3127 23.5367 23.0575C22.7919 23.8023 22.2011 24.6866 21.798 25.6597C21.3949 26.6328 21.1874 27.6758 21.1874 28.7291C21.1874 29.7824 21.3949 30.8254 21.798 31.7986C22.2011 32.7717 22.7919 33.6559 23.5367 34.4007C24.2815 35.1455 25.1657 35.7363 26.1388 36.1394C27.1119 36.5425 28.1549 36.7499 29.2082 36.7499C30.2616 36.7499 31.3046 36.5425 32.2777 36.1394C33.2508 35.7363 34.135 35.1455 34.8798 34.4007C35.6246 33.6559 36.2154 32.7717 36.6185 31.7986C37.0216 30.8254 37.2291 29.7824 37.2291 28.7291C37.2291 27.6758 37.0216 26.6328 36.6185 25.6597C36.2154 24.6865 35.6246 23.8023 34.8798 23.0575C34.135 22.3127 33.2508 21.7219 32.2777 21.3188C31.3046 20.9158 30.2616 20.7083 29.2082 20.7083Z" fill="white"/>
<path d="M3.12 43.4742C4.62419 41.97 6.66432 41.125 8.79158 41.125H16.8124V49.1458C16.8124 51.273 15.9674 53.3132 14.4632 54.8174C12.959 56.3216 10.9188 57.1666 8.79158 57.1666C6.66432 57.1666 4.62419 56.3216 3.12 54.8174C1.6158 53.3132 0.770752 51.273 0.770752 49.1458C0.770752 47.0185 1.6158 44.9784 3.12 43.4742Z" fill="white"/>
<path d="M8.79158 20.7083C6.66432 20.7083 4.6242 21.5533 3.12 23.0575C1.6158 24.5617 0.770752 26.6019 0.770752 28.7291C0.770752 30.8564 1.6158 32.8965 3.12 34.4007C4.6242 35.9049 6.66432 36.7499 8.79158 36.7499H16.8124V20.7083H8.79158Z" fill="white"/>
</svg>
